<svg width="64" height="64" viewBox="0 0 64 64" fill="none" xmlns="http://www.w3.org/2000/svg">
  <defs>
    <linearGradient id="grad1" x1="0%" y1="0%" x2="100%" y2="100%">
      <stop offset="0%" style="stop-color:#667eea;stop-opacity:1" />
      <stop offset="100%" style="stop-color:#764ba2;stop-opacity:1" />
    </linearGradient>
    <linearGradient id="grad2" x1="0%" y1="0%" x2="100%" y2="100%">
      <stop offset="0%" style="stop-color:#f093fb;stop-opacity:1" />
      <stop offset="100%" style="stop-color:#f5576c;stop-opacity:1" />
    </linearGradient>
    <linearGradient id="grad3" x1="0%" y1="0%" x2="100%" y2="100%">
      <stop offset="0%" style="stop-color:#4facfe;stop-opacity:1" />
      <stop offset="100%" style="stop-color:#00f2fe;stop-opacity:1" />
    </linearGradient>
  </defs>
  
  <!-- Background circle -->
  <circle cx="32" cy="32" r="30" fill="url(#grad1)" opacity="0.1"/>
  
  <!-- Dollar sign -->
  <path d="M32 12v40M24 20c0-4.4 3.6-8 8-8s8 3.6 8 8c0 4.4-3.6 8-8 8s-8 3.6-8 8c0 4.4 3.6 8 8 8" 
        stroke="url(#grad2)" stroke-width="3" stroke-linecap="round" stroke-linejoin="round"/>
  
  <!-- Coins -->
  <circle cx="20" cy="28" r="4" fill="url(#grad3)" opacity="0.8"/>
  <circle cx="44" cy="36" r="3" fill="url(#grad2)" opacity="0.6"/>
  <circle cx="48" cy="24" r="2" fill="url(#grad1)" opacity="0.7"/>
  
  <!-- Sparkles -->
  <path d="M16 16l2-2m0 0l2 2m-2-2l-2 2m2-2l2-2" stroke="url(#grad3)" stroke-width="1.5" stroke-linecap="round"/>
  <path d="M48 48l2-2m0 0l2 2m-2-2l-2 2m2-2l2-2" stroke="url(#grad2)" stroke-width="1.5" stroke-linecap="round"/>
  <path d="M52 16l1-1m0 0l1 1m-1-1l-1 1m1-1l1-1" stroke="url(#grad1)" stroke-width="1" stroke-linecap="round"/>
</svg> 